<?xml version="1.0" standalone="no"?>
<!DOCTYPE svg PUBLIC "-//W3C//DTD SVG 20010904//EN"
 "http://www.w3.org/TR/2001/REC-SVG-20010904/DTD/svg10.dtd">
<svg version="1.0" xmlns="http://www.w3.org/2000/svg"
 width="260.000000pt" height="260.000000pt" viewBox="0 0 260.000000 260.000000"
 preserveAspectRatio="xMidYMid meet">
<metadata>
Created by potrace 1.11, written by Peter Selinger 2001-2013
</metadata>
<g transform="translate(0.000000,260.000000) scale(0.100000,-0.100000)"
fill="#000000" stroke="none">
<path d="M1295 1796 l-920 -283 -3 -127 c-2 -90 1 -126 9 -126 10 0 1730 484
1817 511 l32 11 0 149 c0 82 -3 149 -7 148 -5 0 -422 -127 -928 -283z"/>
<path d="M1290 1081 l-915 -268 -3 -142 c-2 -133 -1 -142 15 -137 10 3 427
131 926 286 500 154 910 280 913 280 2 0 4 56 4 125 0 94 -3 125 -12 124 -7 0
-425 -121 -928 -268z"/>
</g>
</svg>
